<svg width="35" height="35" viewBox="0 0 35 35" fill="none" xmlns="http://www.w3.org/2000/svg">
<circle cx="17.5" cy="17.5" r="17.5" transform="rotate(90 17.5 17.5)" fill="#EE122A"/>
<path d="M16.5757 21.0913C16.8101 21.3256 17.19 21.3256 17.4243 21.0913L21.2426 17.2729C21.477 17.0386 21.477 16.6587 21.2426 16.4244C21.0083 16.19 20.6284 16.19 20.3941 16.4244L17 19.8185L13.6059 16.4244C13.3716 16.19 12.9917 16.19 12.7574 16.4244C12.523 16.6587 12.523 17.0386 12.7574 17.2729L16.5757 21.0913ZM17 19.667L16.4 19.667L16.4 20.667L17 20.667L17.6 20.667L17.6 19.667L17 19.667Z" fill="white"/>
</svg>
