<svg width="96" height="24" viewBox="0 0 96 24" fill="none" xmlns="http://www.w3.org/2000/svg">
<g clip-path="url(#clip0_573_575)">
<mask id="mask0_573_575" style="mask-type:luminance" maskUnits="userSpaceOnUse" x="0" y="0" width="96" height="24">
<path d="M96 0H0V24H96V0Z" fill="white"/>
</mask>
<g mask="url(#mask0_573_575)">
<path d="M36.6963 0.564453L28.4141 21.8335H32.865L34.5838 17.3913H43.3773L45.088 21.8335H49.5051L41.2536 0.564453H36.6963ZM36.092 13.4878L38.9898 6.00356L41.8712 13.4878H36.092Z" fill="#D3D3D3"/>
<path d="M88.1234 6.62207C86.5659 6.62207 85.0436 7.07592 83.7488 7.92628C82.454 8.77658 81.4452 9.98523 80.8495 11.3992C80.2532 12.8132 80.0977 14.3692 80.401 15.8703C80.705 17.3715 81.4548 18.7504 82.5562 19.8326C83.6569 20.9149 85.0597 21.6519 86.5871 21.9506C88.1144 22.2491 89.6977 22.0959 91.1365 21.5102C92.5745 20.9244 93.8044 19.9326 94.6693 18.66C95.5348 17.3874 95.9962 15.8912 95.9962 14.3607C95.9962 12.3082 95.1667 10.3399 93.6907 8.88868C92.214 7.43738 90.2112 6.62207 88.1234 6.62207ZM88.1234 18.1315C87.3646 18.1315 86.623 17.9103 85.9927 17.4962C85.3617 17.0819 84.8701 16.4931 84.5797 15.8043C84.2892 15.1155 84.2134 14.3575 84.3618 13.6262C84.5096 12.895 84.8746 12.2232 85.4111 11.696C85.9477 11.1688 86.6307 10.8098 87.3748 10.6643C88.1189 10.5188 88.89 10.5935 89.5911 10.8788C90.2915 11.1641 90.891 11.6474 91.3125 12.2672C91.7334 12.8872 91.9583 13.616 91.9583 14.3617C91.9596 14.8569 91.8606 15.3475 91.6685 15.8052C91.4757 16.2629 91.1936 16.6788 90.837 17.029C90.481 17.3793 90.0576 17.657 89.5917 17.8461C89.1265 18.0353 88.6272 18.1322 88.1234 18.1315Z" fill="#D3D3D3"/>
<path d="M54.8083 16.3478L51.2132 6.89062H46.9678L52.7541 21.8331H56.9658L62.6488 6.89062H58.4034L54.8083 16.3478Z" fill="#D3D3D3"/>
<path d="M76.0025 2.91992H71.9627V6.89072H69.6006V10.4585H71.9627V16.8192C71.9627 20.4202 73.9829 21.9678 76.8244 21.9678C77.7882 21.9815 78.7444 21.7981 79.6324 21.4292V17.7277C79.1492 17.9028 78.6396 17.9956 78.1249 18.0021C76.8983 18.0021 76.0025 17.5307 76.0025 15.9157V10.4585H79.6324V6.89072H76.0025V2.91992Z" fill="#D3D3D3"/>
<path d="M65.9703 5.81424C67.5966 5.81424 68.9152 4.51836 68.9152 2.91981C68.9152 1.32127 67.5966 0.0253906 65.9703 0.0253906C64.3439 0.0253906 63.0254 1.32127 63.0254 2.91981C63.0254 4.51836 64.3439 5.81424 65.9703 5.81424Z" fill="#D3D3D3"/>
<path d="M67.9909 6.89062H63.9512V21.8331H67.9909V6.89062Z" fill="#D3D3D3"/>
<path d="M7.90163 23.9538C12.251 23.9538 15.7769 20.4882 15.7769 16.2132C15.7769 11.9382 12.251 8.47266 7.90163 8.47266C3.55225 8.47266 0.0263672 11.9382 0.0263672 16.2132C0.0263672 20.4882 3.55225 23.9538 7.90163 23.9538Z" fill="#04E061"/>
<path d="M21.5634 22.9767C24.1916 22.9767 26.3221 20.8826 26.3221 18.2994C26.3221 15.7161 24.1916 13.6221 21.5634 13.6221C18.9353 13.6221 16.8047 15.7161 16.8047 18.2994C16.8047 20.8826 18.9353 22.9767 21.5634 22.9767Z" fill="#FF4053"/>
<path d="M9.40766 7.46365C11.0341 7.46365 12.3525 6.16778 12.3525 4.56923C12.3525 2.97068 11.0341 1.6748 9.40766 1.6748C7.78132 1.6748 6.46289 2.97068 6.46289 4.56923C6.46289 6.16778 7.78132 7.46365 9.40766 7.46365Z" fill="#965EEB"/>
<path d="M19.7144 12.6121C23.2506 12.6121 26.1173 9.79448 26.1173 6.31877C26.1173 2.84302 23.2506 0.0253906 19.7144 0.0253906C16.1782 0.0253906 13.3115 2.84302 13.3115 6.31877C13.3115 9.79448 16.1782 12.6121 19.7144 12.6121Z" fill="#00AAFF"/>
</g>
</g>
<defs>
<clipPath id="clip0_573_575">
<rect width="96" height="24" fill="white"/>
</clipPath>
</defs>
</svg>
