<svg width="50" height="50" viewBox="0 0 50 50" fill="none" xmlns="http://www.w3.org/2000/svg">
<circle cx="25" cy="25" r="25" fill="#EE122A"/>
<path opacity="0.961" fill-rule="evenodd" clip-rule="evenodd" d="M33.8809 16.8345C31.5563 16.8149 29.2321 16.8345 26.9082 16.8931C28.0593 18.5125 29.2312 20.114 30.4238 21.6978C31.6019 20.0908 32.7542 18.4697 33.8809 16.8345Z" fill="white"/>
<path opacity="0.961" fill-rule="evenodd" clip-rule="evenodd" d="M25.1504 16.8345C22.8259 16.8149 20.5016 16.8345 18.1777 16.8931C19.3301 18.4946 20.4824 20.0962 21.6348 21.6978C22.853 20.1086 24.0249 18.4876 25.1504 16.8345Z" fill="white"/>
<path opacity="0.962" fill-rule="evenodd" clip-rule="evenodd" d="M34.8184 17.1855C34.7192 17.2427 34.6313 17.3208 34.5547 17.4199C33.4593 18.9352 32.3754 20.4587 31.3027 21.9902C33.6074 22.0683 35.9121 22.0683 38.2168 21.9902C37.1053 20.3713 35.9725 18.7698 34.8184 17.1855Z" fill="white"/>
<path opacity="0.963" fill-rule="evenodd" clip-rule="evenodd" d="M26.0879 17.1855C25.9566 17.2481 25.8492 17.3458 25.7656 17.4785C24.6816 18.9922 23.5977 20.5059 22.5137 22.0195C24.8574 22.0586 27.2012 22.0586 29.5449 22.0195C28.3705 20.422 27.2181 18.8106 26.0879 17.1855Z" fill="white"/>
<path opacity="0.963" fill-rule="evenodd" clip-rule="evenodd" d="M17.3574 17.1855C17.1935 17.2562 17.0665 17.3734 16.9766 17.5371C15.9202 19.0134 14.8753 20.4977 13.8418 21.9902C16.1465 22.0683 18.4512 22.0683 20.7559 21.9902C19.5973 20.4028 18.4645 18.8013 17.3574 17.1855Z" fill="white"/>
<path opacity="0.973" fill-rule="evenodd" clip-rule="evenodd" d="M38.2168 22.9277C35.7168 22.9277 33.2168 22.9277 30.7168 22.9277C29.4985 27.5592 28.268 32.1881 27.0254 36.8145C27.0449 36.834 27.0645 36.8535 27.084 36.873C30.7377 32.3503 34.3803 27.819 38.0117 23.2793C38.095 23.1677 38.1634 23.0505 38.2168 22.9277Z" fill="white"/>
<path opacity="0.977" fill-rule="evenodd" clip-rule="evenodd" d="M29.8379 22.9282C27.2986 22.9087 24.7595 22.9282 22.2207 22.9868C23.4812 27.6967 24.7507 32.4038 26.0293 37.1079C27.3172 32.386 28.5867 27.6595 29.8379 22.9282Z" fill="white"/>
<path opacity="0.973" fill-rule="evenodd" clip-rule="evenodd" d="M21.3418 22.9282C18.8415 22.9087 16.3415 22.9282 13.8418 22.9868C17.5527 27.6157 21.2637 32.2446 24.9746 36.8735C24.9941 36.854 25.0137 36.8344 25.0332 36.8149C23.7905 32.1886 22.5601 27.5597 21.3418 22.9282Z" fill="white"/>
</svg>
