<svg width="50" height="50" viewBox="0 0 50 50" fill="none" xmlns="http://www.w3.org/2000/svg">
<circle cx="25" cy="25" r="25" fill="#EE122A"/>
<path opacity="0.99" fill-rule="evenodd" clip-rule="evenodd" d="M25.8091 13.2695C26.2651 13.3151 26.7026 13.4336 27.1216 13.625C30.0565 14.737 32.9913 15.849 35.9263 16.9609C36.1634 17.1337 36.3274 17.3616 36.4184 17.6445C36.712 21.9754 35.8461 26.0588 33.8208 29.8945C32.063 32.9099 29.5929 35.143 26.4106 36.5938C26.119 36.7031 25.8273 36.7031 25.5356 36.5938C21.5862 34.7954 18.7881 31.8878 17.1411 27.8711C15.8549 24.6198 15.308 21.2473 15.5005 17.7539C15.566 17.4157 15.7391 17.1514 16.02 16.9609C19.2878 15.7231 22.5508 14.4926 25.8091 13.2695ZM30.4575 20.3242C31.5518 20.4063 31.9437 20.9714 31.6333 22.0195C29.8759 23.9046 28.0986 25.7731 26.3013 27.625C25.8638 27.8802 25.4263 27.8802 24.9888 27.625C24.1229 26.7591 23.257 25.8932 22.3911 25.0273C21.9636 24.0413 22.2734 23.4397 23.3208 23.2227C23.547 23.2312 23.7566 23.295 23.9497 23.4141C24.4784 23.9427 25.007 24.4713 25.5356 25C25.5903 25.0365 25.645 25.0365 25.6997 25C27.1199 23.4886 28.56 21.9938 30.02 20.5156C30.1654 20.4348 30.3112 20.371 30.4575 20.3242Z" fill="white"/>
</svg>
