<svg width="50" height="50" viewBox="0 0 50 50" fill="none" xmlns="http://www.w3.org/2000/svg">
<circle cx="25" cy="25" r="25" fill="#EE122A"/>
<g clip-path="url(#clip0_573_166)">
<path d="M12.6875 11.4996L11 13.1871L14.7125 18.3862C14.8688 18.6052 15.0752 18.7836 15.3144 18.9066C15.5536 19.0296 15.8188 19.0936 16.0878 19.0933H16.2059C16.4278 19.0931 16.6475 19.1367 16.8525 19.2216C17.0576 19.3064 17.2438 19.4308 17.4007 19.5877L21.9148 24.1018L17.4986 28.5804C16.7432 28.3581 15.9465 28.3148 15.1715 28.454C14.3965 28.5933 13.6647 28.9112 13.0339 29.3825C12.4032 29.8539 11.891 30.4657 11.538 31.1695C11.1849 31.8733 11.0007 32.6497 11 33.4371C11.001 34.1626 11.158 34.8794 11.4602 35.539C11.7624 36.1985 12.2029 36.7854 12.7518 37.2599C13.3007 37.7344 13.9451 38.0853 14.6415 38.289C15.3378 38.4926 16.0698 38.5442 16.7879 38.4403C17.5059 38.3363 18.1932 38.0792 18.8032 37.6864C19.4132 37.2937 19.9317 36.7744 20.3234 36.1637C20.7152 35.5531 20.9712 34.8653 21.0739 34.1471C21.1767 33.4289 21.1239 32.697 20.9191 32.001L25.3977 27.5848L27.0312 29.2183L26.5166 30.7607C26.4177 31.058 26.4035 31.3769 26.4756 31.6818C26.5477 31.9867 26.7033 32.2655 26.9249 32.487L32.4431 38.0051C32.5994 38.1624 32.7853 38.2872 32.9901 38.3723C33.1948 38.4575 33.4144 38.5013 33.6361 38.5013C33.8579 38.5013 34.0774 38.4575 34.2822 38.3723C34.4869 38.2872 34.6728 38.1624 34.8292 38.0051L37.5056 35.3287C37.6628 35.1724 37.7876 34.9865 37.8728 34.7817C37.9579 34.577 38.0017 34.3574 38.0017 34.1357C38.0017 33.9139 37.9579 33.6944 37.8728 33.4896C37.7876 33.2849 37.6628 33.099 37.5056 32.9426L31.9874 27.4245C31.766 27.2029 31.4872 27.0473 31.1823 26.9752C30.8774 26.903 30.5584 26.9172 30.2611 27.0161L28.7188 27.5308L27.0987 25.9108L31.6213 21.4507C32.3715 21.651 33.1577 21.6763 33.9193 21.5247C34.6808 21.373 35.3974 21.0485 36.0137 20.5762C36.63 20.1038 37.1297 19.4963 37.474 18.8003C37.8184 18.1043 37.9984 17.3386 38 16.5621C38 16.1064 37.9426 15.6694 37.8279 15.2509L34.2166 18.8638L31.25 18.2496L30.6357 15.2846L34.2487 11.6717C33.3892 11.4406 32.484 11.4402 31.6244 11.6704C30.7647 11.9007 29.9809 12.3535 29.352 12.9833C28.7232 13.613 28.2714 14.3974 28.0423 15.2574C27.8132 16.1174 27.8149 17.0225 28.0471 17.8817L23.5921 22.4008L19.0882 17.9002C18.7717 17.5838 18.5938 17.1547 18.5938 16.7072V16.5874C18.5938 16.3186 18.5296 16.0538 18.4066 15.8149C18.2837 15.576 18.1054 15.3699 17.8867 15.2137L12.6875 11.4996ZM28.9651 29.4647C29.0435 29.3861 29.1366 29.3238 29.2391 29.2812C29.3416 29.2387 29.4515 29.2168 29.5625 29.2168C29.6735 29.2168 29.7834 29.2387 29.8859 29.2812C29.9884 29.3238 30.0815 29.3861 30.1599 29.4647L35.0772 34.3837C35.2309 34.5429 35.316 34.756 35.3141 34.9772C35.3121 35.1985 35.2234 35.4101 35.067 35.5665C34.9105 35.723 34.6989 35.8117 34.4777 35.8136C34.2565 35.8155 34.0433 35.7305 33.8842 35.5768L28.9651 30.6594C28.8865 30.5811 28.8242 30.4879 28.7817 30.3854C28.7391 30.2829 28.7172 30.173 28.7172 30.0621C28.7172 29.9511 28.7391 29.8412 28.7817 29.7387C28.8242 29.6362 28.8865 29.5431 28.9651 29.4647ZM16.0625 30.0621L16.8573 30.4704L17.75 30.5143L18.2343 31.2652L18.9852 31.7496L19.0291 32.6422L19.4375 33.4371L19.0291 34.2319L18.9852 35.1246L18.2343 35.6089L17.75 36.3598L16.8573 36.4037L16.0625 36.8121L15.2677 36.4037L14.375 36.3598L13.8907 35.6089L13.1398 35.1246L13.0959 34.2319L12.6875 33.4371L13.0959 32.6422L13.1398 31.7496L13.8907 31.2652L14.375 30.5143L15.2677 30.4704L16.0625 30.0621Z" fill="white"/>
</g>
<defs>
<clipPath id="clip0_573_166">
<rect width="27" height="27" fill="white" transform="translate(11 11.5)"/>
</clipPath>
</defs>
</svg>
