<!-- icon666.com - MILLIONS OF FREE VECTOR ICONS --><svg id="Layer_1" viewBox="0 0 32 32" xmlns="http://www.w3.org/2000/svg" data-name="Layer 1"><path d="m28 24h-3.2a1 1 0 0 1 0-2h3.2a1.0013 1.0013 0 0 0 1-1v-16a1.0013 1.0013 0 0 0 -1-1h-24a1.0013 1.0013 0 0 0 -1 1v16a1.0013 1.0013 0 0 0 1 1h3.2a1 1 0 1 1 0 2h-3.2a3.0033 3.0033 0 0 1 -3-3v-16a3.0033 3.0033 0 0 1 3-3h24a3.0033 3.0033 0 0 1 3 3v16a3.0033 3.0033 0 0 1 -3 3z"></path><path d="m23.666 26.9185-6.0171-9.0347a2.0038 2.0038 0 0 0 -3.2978-.0005l-6.0171 9.0352a2.0016 2.0016 0 0 0 1.6489 3.0815h12.0342a2.0145 2.0145 0 0 0 1.6489-3.0815z"></path></svg>