<!-- icon666.com - MILLIONS OF FREE VECTOR ICONS --><svg viewBox="0 0 32 32" xmlns="http://www.w3.org/2000/svg"><g id="_23_tow_truck" data-name="23 tow truck"><path d="m27.7 17.09-2.78-6.48a1 1 0 0 0 -.92-.61h-6a1 1 0 0 0 -1 1v4.58l-11-11-.29-.29a1 1 0 0 0 -1.71.71v4.26a5.32 5.32 0 0 0 1.38 3.42.45.45 0 0 1 .12.32.5.5 0 0 1 -1 0 1 1 0 0 0 -2 0 2.5 2.5 0 1 0 4.41-1.61 3.37 3.37 0 0 1 -.91-2.13v-.57l5 8.57v1.74h-8a1 1 0 0 0 -1 1v4a2 2 0 0 0 2 2h1.18a3 3 0 0 0 5.64 0h10.36a3 3 0 0 0 5.64 0h1.18a2 2 0 0 0 2-2v-4a3 3 0 0 0 -2.3-2.91zm-8.7-5.09h4.34l2.14 5h-6.48zm-6 6h4v1h-4zm1.59-2h-2l-2.83-4.83zm-6.59 10a1 1 0 1 1 1-1 1 1 0 0 1 -1 1zm16 0a1 1 0 1 1 1-1 1 1 0 0 1 -1 1zm4-2h-1.18a3 3 0 0 0 -5.64 0h-10.36a3 3 0 0 0 -5.64 0h-1.18v-3h14a1 1 0 0 0 1-1v-1h8a1 1 0 0 1 1 1zm-5-3a1 1 0 0 1 -1 1h-1a1 1 0 0 1 0-2h1a1 1 0 0 1 1 1z"></path></g></svg>