<!-- icon666.com - MILLIONS OF FREE VECTOR ICONS --><svg xmlns="http://www.w3.org/2000/svg" viewBox="0 0 64 64"><g id="Outline"><path d="M60,37H33V32.04L49,13.555v7.587A3.993,3.993,0,1,0,54,25a1,1,0,0,0-2,0,2,2,0,1,1-2-2,1,1,0,0,0,1-1V11a.964.964,0,0,0-.024-.119,1.47,1.47,0,0,0-.4-1.271L48.39,7.426a1.5,1.5,0,0,0-2.036-.079l-20.568,17.8A5.917,5.917,0,0,0,23,26.55V20a2,2,0,0,0-2-2H8.644a2,2,0,0,0-1.821,1.173L2.181,29.386A1.977,1.977,0,0,0,2,30.217V43a2,2,0,0,0,2,2H8.08a6.975,6.975,0,0,0,2.031,4H2v2H62V49H53.889a6.975,6.975,0,0,0,2.031-4H60a2,2,0,0,0,2-2V39A2,2,0,0,0,60,37ZM44.111,39a6.975,6.975,0,0,0-2.031,4H21.92a6.975,6.975,0,0,0-2.031-4H44.111ZM47.305,9.169,48.831,10.7,32.748,29.275a5.969,5.969,0,0,0-4.023-4.024ZM26.587,27.023A3.476,3.476,0,0,1,27,27a3.984,3.984,0,0,1,4,4v6H23V31A3.985,3.985,0,0,1,26.587,27.023ZM4,34.024,7.008,34l-.016-2L4,32.024V30.216L8.644,20H21V37H4ZM4,39h6.111A6.975,6.975,0,0,0,8.08,43H4Zm6,5a5,5,0,1,1,5,5A5.006,5.006,0,0,1,10,44Zm9.889,5a6.975,6.975,0,0,0,2.031-4H42.08a6.975,6.975,0,0,0,2.031,4ZM49,49a5,5,0,1,1,5-5A5.006,5.006,0,0,1,49,49Zm11-6H55.92a6.975,6.975,0,0,0-2.031-4H60Z"></path><path d="M19,28.5v-6A1.5,1.5,0,0,0,17.5,21H11.33a1.5,1.5,0,0,0-1.379.909l-2.571,6A1.5,1.5,0,0,0,8.758,30H17.5A1.5,1.5,0,0,0,19,28.5ZM17,28H9.517l2.142-5H17Z"></path><rect x="17" y="32" width="2" height="3"></rect><path d="M15,41a3,3,0,1,0,3,3A3,3,0,0,0,15,41Zm0,4a1,1,0,1,1,1-1A1,1,0,0,1,15,45Z"></path><path d="M49,41a3,3,0,1,0,3,3A3,3,0,0,0,49,41Zm0,4a1,1,0,1,1,1-1A1,1,0,0,1,49,45Z"></path><path d="M27,34a3,3,0,1,0-3-3A3,3,0,0,0,27,34Zm0-4a1,1,0,1,1-1,1A1,1,0,0,1,27,30Z"></path></g></svg>