<!-- icon666.com - MILLIONS OF FREE VECTOR ICONS --><svg version="1.1" id="Capa_1" xmlns="http://www.w3.org/2000/svg" xmlns:xlink="http://www.w3.org/1999/xlink" x="0px" y="0px" viewBox="0 0 432.767 432.767" style="enable-background:new 0 0 432.767 432.767;" xml:space="preserve"><g><g><path d="M424.448,86.591c-1.024-3.584-3.584-5.12-6.656-6.144c-3.072-0.512-6.656,0-9.216,2.56l-48.64,49.152l-41.472-13.824 l-12.8-38.4l50.176-49.664c2.56-2.56,3.072-5.632,2.56-9.216c-0.512-3.072-2.56-5.632-5.632-7.168 C335.36,6.719,320,4.159,305.664,4.159c-34.304,0-66.56,12.8-90.624,36.864c-24.064,24.064-37.888,55.808-37.888,89.6 c0,11.264,1.536,22.528,4.608,33.28L16.896,329.279c-22.528,22.528-22.528,59.904,0,82.432 c11.776,11.776,26.624,16.896,41.472,16.896c14.848,0,29.696-5.632,41.472-16.896l161.792-161.792 c13.824,5.12,28.672,7.68,43.52,7.68c0,0,0,0,0.512,0c33.792,0,66.56-12.8,90.624-36.864 C430.592,185.407,442.368,132.671,424.448,86.591z M78.848,387.135c-11.264,11.264-28.672,11.264-38.912,0 c-11.264-11.264-11.264-28.672,0-38.912c11.264-10.24,28.672-11.264,38.912,0C89.088,358.975,89.6,376.895,78.848,387.135z"></path></g></g></svg>