<svg width="28" height="29" viewBox="0 0 28 29" fill="none" xmlns="http://www.w3.org/2000/svg">
<path fill-rule="evenodd" clip-rule="evenodd" d="M14.3008 28.9172C11.5529 28.9172 10.276 28.5 8.05631 26.8309C6.65233 28.7085 2.2063 30.1761 2.01241 27.6654C2.01241 25.7808 1.61126 24.1882 1.15663 22.4495C0.61509 20.3075 0 17.922 0 14.4656C0 6.21046 6.51192 0 14.2273 0C21.9493 0 27.9999 6.51647 27.9999 14.542C28.0258 22.4436 21.8968 28.8751 14.3008 28.9172ZM14.4145 7.13543C10.657 6.93374 7.72871 9.63912 7.08016 13.8813C6.54536 17.3935 7.49468 21.6705 8.30376 21.8931C8.69144 21.9905 9.66759 21.1698 10.276 20.537C11.282 21.2599 12.4536 21.6941 13.6724 21.7957C17.5657 21.9906 20.8923 18.9074 21.1537 14.862C21.3059 10.8081 18.3083 7.37434 14.4145 7.14239V7.13543Z" fill="url(#paint0_linear_755_531)"/>
<defs>
<linearGradient id="paint0_linear_755_531" x1="14" y1="0" x2="14" y2="29" gradientUnits="userSpaceOnUse">
<stop stop-color="#8F3FFF"/>
<stop offset="0.509615" stop-color="#5A8CFF"/>
<stop offset="1" stop-color="#43D6FF"/>
</linearGradient>
</defs>
</svg>
