<svg width="42" height="42" viewBox="0 0 42 42" fill="none" xmlns="http://www.w3.org/2000/svg">
<g clip-path="url(#clip0_745_376)">
<path fill-rule="evenodd" clip-rule="evenodd" d="M21.4512 41.8801C17.3294 41.8801 15.414 41.2759 12.0845 38.8586C9.9785 41.5779 3.30945 43.7033 3.01861 40.0671C3.01861 37.3377 2.41689 35.0312 1.73495 32.5131C0.922636 29.4109 0 25.956 0 20.9501C0 8.99444 9.76788 -3.05176e-05 21.3409 -3.05176e-05C32.924 -3.05176e-05 41.9999 9.43762 41.9999 21.0609C42.0387 32.5045 32.8453 41.8191 21.4512 41.8801ZM21.6218 10.334C15.9856 10.042 11.5931 13.9601 10.6202 20.104C9.81804 25.1905 11.242 31.3849 12.4556 31.7072C13.0372 31.8483 14.5014 30.6597 15.414 29.7432C16.923 30.7902 18.6804 31.419 20.5086 31.5662C26.3486 31.8484 31.3385 27.3831 31.7305 21.5243C31.9589 15.653 27.4624 10.6801 21.6218 10.3441V10.334Z" fill="#4A4948"/>
</g>
<defs>
<clipPath id="clip0_745_376">
<rect width="42" height="42" fill="white"/>
</clipPath>
</defs>
</svg>
