<!-- icon666.com - MILLIONS OF FREE VECTOR ICONS --><svg enable-background="new 0 0 512 512" viewBox="0 0 512 512" xmlns="http://www.w3.org/2000/svg"><path d="m354.539 282.693h-7.664c-3.675-15-9.669-29.827-17.887-42.828l5.365-5.213c10.014-9.836 10.118-25.948.155-35.911l-9.869-9.862c-9.853-9.85-25.769-9.849-35.634-.16l-5.798 5.637c-13.55-8.422-28.058-14.373-43.058-17.763v-7.542c0-13.939-11.104-25.358-25.043-25.358h-14.059c-13.939 0-24.897 11.418-24.897 25.358v7.542c-15 3.385-29.535 9.321-43.066 17.722l-5.531-5.341c-9.875-9.875-25.871-9.885-35.75-.004l-9.864 9.855c-9.856 9.856-9.856 25.88 0 35.738l5.339 5.311c-8.401 13.531-14.338 27.82-17.723 42.82h-7.542c-13.939 0-24.863 11.453-24.863 25.393v14.059c0 13.939 10.924 25.549 24.863 25.549h7.542c3.39 15 9.343 29.255 17.766 42.805l-5.634 5.604c-9.68 9.855-9.602 25.82.167 35.59l9.874 9.861c9.982 9.981 26.171 9.827 35.983-.161l5.365-5.365c13 8.218 27.074 14.21 43.074 17.885v7.664c0 13.94 10.958 25.117 24.897 25.117h14.059c13.939 0 25.043-11.177 25.043-25.117v-7.664c16-3.682 30.049-9.686 43.066-17.924l5.783 5.667c9.871 9.871 25.871 9.893 35.751.013l9.863-9.846c9.856-9.857 9.856-25.86 0-35.716l-5.666-5.6c8.239-13.019 14.246-27.813 17.927-42.813h7.664c13.939 0 25.611-11.609 25.611-25.549v-14.059c.002-13.941-11.669-25.394-25.609-25.394zm5.611 39.452c0 2.911-2.7 5.549-5.611 5.549h-15.793c-4.84 0-8.984 3.331-9.842 8.094-3.363 18.685-10.416 35.4-20.962 49.947-2.886 3.979-2.451 9.465 1.024 12.939l11.505 11.507c2.047 2.047 2.078 5.385-.002 7.465l-9.865 9.863c-2.068 2.068-5.416 2.06-7.478 0l-11.52-11.504c-3.475-3.475-8.99-3.908-12.969-1.025-14.547 10.545-31.456 17.598-50.142 20.962-4.763.857-8.346 5.002-8.346 9.842v15.793c0 2.912-2.132 5.117-5.043 5.117h-14.059c-2.911 0-4.897-2.205-4.897-5.117v-15.793c0-4.84-3.656-8.984-8.419-9.842-18.688-3.364-35.728-10.417-50.273-20.961-4.017-2.913-9.543-2.434-13.004 1.09l-11.107 11.309c-2.049 2.086-5.419 2.118-7.501.036l-9.861-9.855c-2.041-2.041-2.056-5.368-.034-7.427l11.3-11.488c3.376-3.438 3.821-8.761 1.058-12.708-10.858-15.513-17.798-32.276-20.627-49.958-.776-4.851-4.961-8.285-9.875-8.285h-15.793c-2.911 0-4.863-2.638-4.863-5.549v-14.059c0-2.911 1.952-5.393 4.863-5.393h15.794c4.913 0 9.098-3.513 9.875-8.363 2.829-17.683 9.77-34.458 20.627-49.971 2.783-3.975 2.31-9.375-1.121-12.806l-11.105-11.105c-2.059-2.059-2.058-5.409.001-7.467l9.866-9.864c2.075-2.074 5.434-2.05 7.484 0l11.131 11.106c3.431 3.431 8.878 3.903 12.853 1.122 15.512-10.858 32.438-17.798 50.12-20.627 4.852-.776 8.611-4.961 8.611-9.875v-15.793c0-2.912 1.986-5.358 4.897-5.358h14.059c2.911 0 5.043 2.446 5.043 5.358v15.793c0 4.913 3.687 9.098 8.538 9.875 17.682 2.83 34.631 9.77 50.144 20.627 3.948 2.763 9.303 2.317 12.741-1.058l11.507-11.301c2.068-2.03 5.382-2.017 7.432.033l9.862 9.862c2.076 2.075 2.062 5.436-.033 7.495l-11.31 11.1c-3.531 3.468-3.994 8.983-1.089 12.99 10.545 14.547 17.598 31.369 20.962 50.055.857 4.763 5.002 8.172 9.842 8.172h15.793c2.911 0 5.611 2.481 5.611 5.393v14.058z"></path><path d="m211.377 231.282c-47.739-1.834-87.195 36.479-87.196 83.833 0 46.261 37.636 83.896 83.896 83.896 47.521 0 85.675-39.463 83.833-87.196-1.679-43.48-37.054-78.855-80.533-80.533zm42.733 128.106c-12.175 12.655-28.523 19.624-46.032 19.624-35.232 0-63.896-28.664-63.896-63.896s28.664-63.897 63.896-63.897c.837 0 1.684.016 2.529.049 33.106 1.278 60.041 28.213 61.32 61.32.676 17.535-5.652 34.156-17.817 46.8z"></path><path d="m477.226 147.478-1.935-10.921c-2.111-11.918-13.542-19.989-25.479-17.982l-4.731.794c-4.778-10.761-10.979-20.475-18.522-29.014l2.505-3.583c7.015-10.033 4.573-23.831-5.463-30.847l-9.163-6.405c-10.031-7.013-23.831-4.572-30.846 5.464l-2.505 3.584c-10.59-4.143-21.814-6.628-33.536-7.424l-.767-4.324c-2.133-12.05-13.618-20.087-25.675-17.948l-10.921 1.935c-12.055 2.134-20.084 13.619-17.948 25.675l.766 4.325c-10.734 4.774-20.424 10.965-28.945 18.492l-3.584-2.505c-10.034-7.014-23.831-4.572-30.846 5.463l-6.405 9.163c-6.998 10.011-4.547 23.848 5.464 30.846l10.294 7.195c4.528 3.164 10.762 2.06 13.925-2.467 3.164-4.527 2.06-10.761-2.467-13.925l-10.293-7.195c-.976-.682-1.213-2.018-.53-2.995l6.405-9.163c.688-.985 2.03-1.206 2.996-.53l10.293 7.195c4.028 2.815 9.501 2.287 12.917-1.244 9.684-10.011 21.615-17.651 35.466-22.707 4.559-1.664 7.265-6.36 6.418-11.138l-2.179-12.3c-.21-1.181.58-2.291 1.742-2.497l10.923-1.94c1.199-.214 2.293.582 2.492 1.71l2.179 12.257c.846 4.775 4.997 8.171 9.847 8.171 2.256.25 20.283-.871 41.114 9.228 4.421 2.143 9.742.843 12.559-3.185l7.195-10.293c.682-.975 2.018-1.213 2.994-.53l9.163 6.405c.973.681 1.216 2.016.53 2.995l-7.195 10.294c-2.814 4.027-2.287 9.501 1.244 12.917 10.011 9.683 17.65 21.615 22.706 35.465 1.651 4.526 6.292 7.232 11.049 6.433l12.647-2.123c1.16-.191 2.271.589 2.475 1.746l1.935 10.921c.207 1.171-.572 2.296-1.762 2.496l-12.432 2.086c-4.881.819-8.429 5.086-8.343 10.035.24 13.975-2.777 27.87-8.968 41.299-2.026 4.395-.614 9.61 3.352 12.383l10.294 7.195c.973.68 1.21 2.023.53 2.996l-6.405 9.163c-.691.989-2.032 1.203-2.994.531l-10.294-7.196c-4.526-3.166-10.761-2.061-13.926 2.466-3.164 4.526-2.06 10.761 2.467 13.925l10.294 7.196c10.031 7.013 23.827 4.578 30.846-5.463l6.405-9.163c6.998-10.011 4.547-23.849-5.464-30.847l-3.678-2.57c4.189-10.988 6.647-22.232 7.347-33.593l4.279-.718c12.151-2.041 20.292-13.577 18.144-25.709z"></path><path d="m381.363 111.309c-31.092-23.572-75.555-16.652-97.941 15.37-3.164 4.527-2.06 10.761 2.467 13.925 4.524 3.165 10.761 2.06 13.926-2.466 15.788-22.587 47.293-27.701 69.467-10.892 20.147 15.274 25.218 43.897 11.542 65.164-4.318 6.714.615 15.41 8.401 15.41 3.289 0 6.51-1.621 8.421-4.592 19.29-29.998 12.138-70.374-16.283-91.919z"></path></svg>