<!-- icon666.com - MILLIONS OF FREE VECTOR ICONS --><svg id="Layer_2" enable-background="new 0 0 32 32" viewBox="0 0 32 32" xmlns="http://www.w3.org/2000/svg"><g><path d="m9.67096 21.27417 5.06128 8.9903c.26135.45483.74518.73553 1.26776.73553s1.00641-.2807 1.26776-.73553l5.06128-8.9903c3.0097-2.08063 4.79999-5.47742 4.79999-9.14514 0-6.1355-4.99353-11.12903-11.12903-11.12903s-11.12903 4.99353-11.12903 11.12903c0 3.66772 1.79028 7.06451 4.79999 9.14514zm6.32904-13.67419c2.49677 0 4.52905 2.03223 4.52905 4.52905 0 2.4967-2.03229 4.52899-4.52905 4.52899s-4.52905-2.03229-4.52905-4.52899c0-2.49683 2.03228-4.52905 4.52905-4.52905z"></path></g></svg>