<!-- icon666.com - MILLIONS OF FREE VECTOR ICONS --><svg version="1.1" id="Capa_1" xmlns="http://www.w3.org/2000/svg" xmlns:xlink="http://www.w3.org/1999/xlink" x="0px" y="0px" viewBox="0 0 512 512" style="enable-background:new 0 0 512 512;" xml:space="preserve"><g><g><g><path d="M128,256h139.636c6.427,0,11.636-5.21,11.636-11.636s-5.21-11.636-11.636-11.636H128c-6.427,0-11.636,5.21-11.636,11.636 S121.573,256,128,256z"></path><path d="M442.182,69.818h-93.091V46.545c0-12.853-10.419-23.273-23.273-23.273h-46.545C279.273,10.42,268.853,0,256,0 c-12.853,0-23.273,10.42-23.273,23.273h-46.545c-12.853,0-23.273,10.42-23.273,23.273v23.273H69.818 c-12.853,0-23.273,10.42-23.273,23.273v395.636C46.545,501.58,56.965,512,69.818,512h372.364 c12.853,0,23.273-10.42,23.273-23.273V93.091C465.455,80.238,455.035,69.818,442.182,69.818z M186.182,46.545h139.636v46.545 H186.182V46.545z M442.182,488.727H69.818V162.909h372.364V488.727z M442.182,139.636H69.818V93.091h93.091 c0,12.853,10.42,23.273,23.273,23.273h139.636c12.853,0,23.273-10.42,23.273-23.273h93.091V139.636z"></path><path d="M128,395.636h209.455c6.427,0,11.636-5.21,11.636-11.636s-5.21-11.636-11.636-11.636H128 c-6.427,0-11.636,5.21-11.636,11.636S121.573,395.636,128,395.636z"></path><path d="M128,325.818h256c6.427,0,11.636-5.21,11.636-11.636s-5.21-11.636-11.636-11.636H128c-6.427,0-11.636,5.21-11.636,11.636 S121.573,325.818,128,325.818z"></path></g></g></g></svg>