<!-- icon666.com - MILLIONS OF FREE VECTOR ICONS --><svg viewBox="0 0 24 24" xmlns="http://www.w3.org/2000/svg"><g id="Layer_2" data-name="Layer 2"><path d="m19.025 8.389.682-.682a1 1 0 1 0 -1.414-1.414l-.682.682a8.956 8.956 0 0 0 -4.611-1.916v-2.059h1a1 1 0 0 0 0-2h-4a1 1 0 0 0 0 2h1v2.059a8.956 8.956 0 0 0 -4.611 1.916l-.682-.682a1 1 0 0 0 -1.414 1.414l.682.682a9 9 0 1 0 14.05 0zm-7.025 12.611a7 7 0 1 1 7-7 7.008 7.008 0 0 1 -7 7z"></path><path d="m13 13.586v-3.586a1 1 0 0 0 -2 0v4a1 1 0 0 0 .293.707l2 2a1 1 0 0 0 1.414-1.414z"></path></g></svg>