<!-- icon666.com - MILLIONS OF FREE VECTOR ICONS --><svg viewBox="0 0 512 512" xmlns="http://www.w3.org/2000/svg"><g id="b"><path d="m256 38c29.45 0 57.99 5.76 84.84 17.12 25.95 10.98 49.27 26.7 69.31 46.73 20.03 20.03 35.76 43.35 46.73 69.31 11.36 26.85 17.12 55.4 17.12 84.84s-5.76 57.99-17.12 84.84c-10.98 25.95-26.7 49.27-46.73 69.31-20.03 20.03-43.35 35.76-69.31 46.73-26.85 11.36-55.4 17.12-84.84 17.12s-57.99-5.76-84.84-17.12c-25.95-10.98-49.27-26.7-69.31-46.73-20.03-20.03-35.76-43.35-46.73-69.31-11.36-26.85-17.12-55.4-17.12-84.84s5.76-57.99 17.12-84.84c10.98-25.95 26.7-49.27 46.73-69.31 20.03-20.03 43.35-35.76 69.31-46.73 26.85-11.36 55.4-17.12 84.84-17.12m0-38c-141.38 0-256 114.62-256 256s114.62 256 256 256 256-114.61 256-256-114.62-256-256-256z"></path><path d="m328.52 348.66c-4.86 0-9.72-1.85-13.43-5.56l-72.52-72.52c-3.56-3.56-5.57-8.4-5.57-13.43v-150.23c0-10.49 8.51-19 19-19s19 8.51 19 19v142.35l66.96 66.96c7.42 7.42 7.42 19.45 0 26.87-3.71 3.71-8.57 5.56-13.43 5.56z"></path></g></svg>