<svg width="223" height="48" viewBox="0 0 223 48" fill="none" xmlns="http://www.w3.org/2000/svg">
<path d="M1.92 0.199999H11.28V1.784H3.6V17H1.92V0.199999ZM21.855 7.352V5H23.439V17H21.855V14.648C20.751 16.408 19.135 17.288 17.007 17.288C15.295 17.288 13.831 16.68 12.615 15.464C11.415 14.248 10.815 12.76 10.815 11C10.815 9.24 11.415 7.752 12.615 6.536C13.831 5.32 15.295 4.712 17.007 4.712C19.135 4.712 20.751 5.592 21.855 7.352ZM13.767 14.384C14.679 15.296 15.799 15.752 17.127 15.752C18.455 15.752 19.575 15.296 20.487 14.384C21.399 13.44 21.855 12.312 21.855 11C21.855 9.672 21.399 8.552 20.487 7.64C19.575 6.712 18.455 6.248 17.127 6.248C15.799 6.248 14.679 6.712 13.767 7.64C12.855 8.552 12.399 9.672 12.399 11C12.399 12.312 12.855 13.44 13.767 14.384ZM33.7048 4.712C35.4168 4.712 36.8728 5.32 38.0728 6.536C39.2888 7.752 39.8968 9.24 39.8968 11C39.8968 12.76 39.2888 14.248 38.0728 15.464C36.8728 16.68 35.4168 17.288 33.7048 17.288C31.5768 17.288 29.9608 16.408 28.8568 14.648V21.8H27.2728V5H28.8568V7.352C29.9608 5.592 31.5768 4.712 33.7048 4.712ZM30.2248 14.384C31.1368 15.296 32.2568 15.752 33.5848 15.752C34.9128 15.752 36.0328 15.296 36.9448 14.384C37.8568 13.44 38.3128 12.312 38.3128 11C38.3128 9.672 37.8568 8.552 36.9448 7.64C36.0328 6.712 34.9128 6.248 33.5848 6.248C32.2568 6.248 31.1368 6.712 30.2248 7.64C29.3128 8.552 28.8568 9.672 28.8568 11C28.8568 12.312 29.3128 13.44 30.2248 14.384ZM53.3306 7.352V5H54.9146V17H53.3306V14.648C52.2266 16.408 50.6106 17.288 48.4826 17.288C46.7706 17.288 45.3066 16.68 44.0906 15.464C42.8906 14.248 42.2906 12.76 42.2906 11C42.2906 9.24 42.8906 7.752 44.0906 6.536C45.3066 5.32 46.7706 4.712 48.4826 4.712C50.6106 4.712 52.2266 5.592 53.3306 7.352ZM45.2426 14.384C46.1546 15.296 47.2746 15.752 48.6026 15.752C49.9306 15.752 51.0506 15.296 51.9626 14.384C52.8746 13.44 53.3306 12.312 53.3306 11C53.3306 9.672 52.8746 8.552 51.9626 7.64C51.0506 6.712 49.9306 6.248 48.6026 6.248C47.2746 6.248 46.1546 6.712 45.2426 7.64C44.3306 8.552 43.8746 9.672 43.8746 11C43.8746 12.312 44.3306 13.44 45.2426 14.384ZM67.3884 10.76L72.7644 17H70.8444L65.9484 11.216V17H64.3644V11.216L59.4684 17H57.5484L62.9244 10.76L57.7884 5H59.7084L64.3644 10.328V5H65.9484V10.328L70.6044 5H72.5244L67.3884 10.76ZM14.88 43H13.104L11.544 38.872H3.576L2.016 43H0.24L6.696 26.2H8.424L14.88 43ZM7.56 28.288L4.176 37.288H10.944L7.56 28.288ZM24.9092 36.832C26.2212 37.312 26.8772 38.248 26.8772 39.64C26.8772 40.632 26.5412 41.44 25.8692 42.064C25.2132 42.688 24.2932 43 23.1092 43H17.2772V31H22.6292C23.7812 31 24.6772 31.296 25.3172 31.888C25.9732 32.48 26.3012 33.256 26.3012 34.216C26.3012 35.416 25.8372 36.288 24.9092 36.832ZM22.6292 32.536H18.8612V36.184H22.6292C24.0212 36.184 24.7172 35.56 24.7172 34.312C24.7172 33.752 24.5332 33.32 24.1652 33.016C23.8132 32.696 23.3012 32.536 22.6292 32.536ZM18.8612 41.464H23.1092C23.8132 41.464 24.3492 41.296 24.7172 40.96C25.1012 40.624 25.2932 40.152 25.2932 39.544C25.2932 38.968 25.1012 38.52 24.7172 38.2C24.3492 37.88 23.8132 37.72 23.1092 37.72H18.8612V41.464ZM27.8484 31H37.9284V32.536H33.6804V43H32.0964V32.536H27.8484V31ZM49.926 41.488C48.694 42.688 47.206 43.288 45.462 43.288C43.686 43.288 42.19 42.688 40.974 41.488C39.758 40.272 39.15 38.776 39.15 37C39.15 35.224 39.758 33.736 40.974 32.536C42.19 31.32 43.686 30.712 45.462 30.712C47.222 30.712 48.71 31.32 49.926 32.536C51.158 33.736 51.774 35.224 51.774 37C51.774 38.76 51.158 40.256 49.926 41.488ZM42.102 40.384C43.014 41.296 44.134 41.752 45.462 41.752C46.79 41.752 47.91 41.296 48.822 40.384C49.734 39.44 50.19 38.312 50.19 37C50.19 35.672 49.734 34.552 48.822 33.64C47.91 32.712 46.79 32.248 45.462 32.248C44.134 32.248 43.014 32.712 42.102 33.64C41.19 34.552 40.734 35.672 40.734 37C40.734 38.312 41.19 39.44 42.102 40.384ZM105.171 26.2V41.416H106.971V46.216H105.291V43H93.1706V26.2H94.8506V41.416H103.491V26.2H105.171ZM115.056 30.712C116.848 30.712 118.28 31.344 119.352 32.608C120.456 33.856 121.008 35.336 121.008 37.048C121.008 37.128 120.992 37.376 120.96 37.792H110.424C110.584 38.992 111.096 39.952 111.96 40.672C112.824 41.392 113.904 41.752 115.2 41.752C117.024 41.752 118.312 41.072 119.064 39.712L120.456 40.528C119.928 41.392 119.2 42.072 118.272 42.568C117.36 43.048 116.328 43.288 115.176 43.288C113.288 43.288 111.752 42.696 110.568 41.512C109.384 40.328 108.792 38.824 108.792 37C108.792 35.192 109.376 33.696 110.544 32.512C111.712 31.312 113.216 30.712 115.056 30.712ZM115.056 32.248C113.808 32.248 112.76 32.616 111.912 33.352C111.08 34.088 110.584 35.056 110.424 36.256H119.376C119.2 34.976 118.712 33.992 117.912 33.304C117.08 32.6 116.128 32.248 115.056 32.248ZM132.504 36.232V31H134.088V43H132.504V37.768H125.592V43H124.008V31H125.592V36.232H132.504ZM136.478 31H146.558V32.536H142.31V43H140.726V32.536H136.478V31ZM155.4 30.712C157.112 30.712 158.568 31.32 159.768 32.536C160.984 33.752 161.592 35.24 161.592 37C161.592 38.76 160.984 40.248 159.768 41.464C158.568 42.68 157.112 43.288 155.4 43.288C153.272 43.288 151.656 42.408 150.552 40.648V47.8H148.968V31H150.552V33.352C151.656 31.592 153.272 30.712 155.4 30.712ZM151.92 40.384C152.832 41.296 153.952 41.752 155.28 41.752C156.608 41.752 157.728 41.296 158.64 40.384C159.552 39.44 160.008 38.312 160.008 37C160.008 35.672 159.552 34.552 158.64 33.64C157.728 32.712 156.608 32.248 155.28 32.248C153.952 32.248 152.832 32.712 151.92 33.64C151.008 34.552 150.552 35.672 150.552 37C150.552 38.312 151.008 39.44 151.92 40.384Z" fill="white"/>
<path d="M53.7047 26.2H65.7047V27.784H60.5447V43H58.8647V27.784H53.7047V26.2ZM71.7334 30.712C73.5254 30.712 74.9574 31.344 76.0294 32.608C77.1334 33.856 77.6854 35.336 77.6854 37.048C77.6854 37.128 77.6694 37.376 77.6374 37.792H67.1014C67.2614 38.992 67.7734 39.952 68.6374 40.672C69.5014 41.392 70.5814 41.752 71.8774 41.752C73.7014 41.752 74.9894 41.072 75.7414 39.712L77.1334 40.528C76.6054 41.392 75.8774 42.072 74.9494 42.568C74.0374 43.048 73.0054 43.288 71.8534 43.288C69.9654 43.288 68.4294 42.696 67.2454 41.512C66.0614 40.328 65.4694 38.824 65.4694 37C65.4694 35.192 66.0534 33.696 67.2214 32.512C68.3894 31.312 69.8934 30.712 71.7334 30.712ZM71.7334 32.248C70.4854 32.248 69.4374 32.616 68.5894 33.352C67.7574 34.088 67.2614 35.056 67.1014 36.256H76.0534C75.8774 34.976 75.3894 33.992 74.5894 33.304C73.7574 32.6 72.8054 32.248 71.7334 32.248ZM85.6162 36.784L90.2962 43H88.4002L84.6562 38.056L80.9122 43H79.0162L83.7202 36.784L79.3282 31H81.2242L84.6562 35.536L88.0882 31H89.9842L85.6162 36.784Z" fill="#EE122A"/>
</svg>
