<svg width="39" height="39" viewBox="0 0 39 39" fill="none" xmlns="http://www.w3.org/2000/svg">
<rect x="0.5" y="0.5" width="38" height="38" rx="19" stroke="white" stroke-opacity="0.2"/>
<path fill-rule="evenodd" clip-rule="evenodd" d="M20.1504 26.96C18.7765 26.96 18.138 26.7586 17.0282 25.9529C16.3262 26.8593 14.1031 27.5678 14.0062 26.3557C14.0062 25.4459 13.8056 24.677 13.5783 23.8377C13.3075 22.8036 13 21.652 13 19.9834C13 15.9982 16.256 13 20.1136 13C23.9747 13 27 16.1459 27 20.0203C27.0129 23.8348 23.9484 26.9397 20.1504 26.96ZM20.2073 16.4447C18.3285 16.3473 16.8644 17.6534 16.5401 19.7013C16.2727 21.3968 16.7473 23.4616 17.1519 23.5691C17.3457 23.6161 17.8338 23.2199 18.138 22.9144C18.641 23.2634 19.2268 23.473 19.8362 23.522C21.7829 23.6161 23.4462 22.1277 23.5768 20.1748C23.653 18.2177 22.1541 16.56 20.2073 16.448V16.4447Z" fill="#EE122A"/>
</svg>
