<svg width="39" height="39" viewBox="0 0 39 39" fill="none" xmlns="http://www.w3.org/2000/svg">
<rect x="0.5" y="0.5" width="38" height="38" rx="19" stroke="white" stroke-opacity="0.2"/>
<g clip-path="url(#clip0_573_234)">
<path d="M19.4943 13.0162C18.4389 13.1174 17.6432 13.3471 16.7791 13.7928C15.4611 14.4764 14.3975 15.5619 13.7385 16.8963C13.4842 17.4076 13.3666 17.7221 13.2326 18.2252C13.0686 18.8596 13.0193 19.2451 13.0166 19.9451C13.0166 20.2951 13.0303 20.6725 13.0494 20.8201C13.1998 21.9412 13.5498 22.9065 14.1377 23.8088L14.3346 24.1123L13.8998 25.3947C13.6592 26.1029 13.4678 26.6826 13.4732 26.6881C13.4787 26.6936 14.0748 26.5076 14.8021 26.2752C15.5295 26.0428 16.1338 25.8514 16.1475 25.8514C16.1584 25.8514 16.2705 25.9143 16.3963 25.9936C16.5221 26.0701 16.7846 26.2123 16.9787 26.3053C18.7479 27.1502 20.7686 27.224 22.5787 26.5049C24.6295 25.6928 26.2045 23.9127 26.7678 21.7744C26.94 21.1182 26.9811 20.76 26.9811 19.9998C26.9811 19.2397 26.94 18.8815 26.7678 18.2252C26.1061 15.7178 24.0963 13.7682 21.5588 13.1748C21.1322 13.0764 20.6893 13.0244 20.1506 13.0162C19.8498 13.0108 19.5545 13.0108 19.4943 13.0162ZM17.8264 16.2592C17.8729 16.2838 17.9357 16.3494 17.9686 16.4096C18.0479 16.5545 18.715 18.1541 18.7342 18.2526C18.7588 18.3756 18.6357 18.5861 18.365 18.8924C18.0807 19.2123 18.0205 19.3135 18.0451 19.4283C18.0916 19.6361 18.7232 20.4756 19.1143 20.8447C19.7186 21.4162 20.6318 21.9604 21.0393 21.9904C21.2498 22.0041 21.3236 21.9467 21.6463 21.5201C21.7912 21.326 21.9443 21.1318 21.9908 21.0881C22.0947 20.9815 22.2506 20.9596 22.4283 21.0252C22.6525 21.11 24.0279 21.7799 24.1264 21.8537L24.2193 21.9221L24.2029 22.2119C24.1646 22.9557 23.9021 23.3412 23.2131 23.6776C22.5568 23.9975 22.0428 23.9893 21.0393 23.642C19.6885 23.1744 18.9748 22.7287 18.0041 21.7526C17.5174 21.2658 17.1729 20.8529 16.7791 20.2869C16.1283 19.3572 15.8795 18.6381 15.9533 17.908C16.0135 17.3229 16.2186 16.8908 16.6314 16.4779C16.8311 16.2783 17.0908 16.1963 17.4846 16.21C17.6514 16.2154 17.7744 16.2318 17.8264 16.2592Z" fill="#EE122A"/>
</g>
<defs>
<clipPath id="clip0_573_234">
<rect width="14" height="14" fill="white" transform="translate(13 13)"/>
</clipPath>
</defs>
</svg>
