<svg width="40" height="40" viewBox="0 0 40 40" fill="none" xmlns="http://www.w3.org/2000/svg">
<g clip-path="url(#clip0_573_406)">
<path d="M-0.5 -0.614258H40.4875V40.6137H-0.5V-0.614258Z" fill="#19AA1E"/>
<path fill-rule="evenodd" clip-rule="evenodd" d="M-0.5 -0.614258H40.4875V12.9133L-0.5 6.47219V-0.614258Z" fill="#FFB919"/>
<path fill-rule="evenodd" clip-rule="evenodd" d="M-0.5 36.0964L40.4875 29.6553V40.6013H-0.5V36.0964Z" fill="#82D714"/>
<path fill-rule="evenodd" clip-rule="evenodd" d="M-0.5 5.66211L13.8121 7.91459C15.5964 6.77569 17.7096 6.15563 20.0001 6.15563C23.1637 6.15563 26.0109 7.34514 28.0862 9.44577C28.352 9.71151 28.5924 9.98991 28.8202 10.2683L40.4875 12.1032V13.7356L29.997 12.0905C30.7816 13.5964 31.1992 15.2794 31.1992 16.9751C31.1992 19.1896 30.7057 21.3915 29.6933 23.5934L29.668 23.6566L29.2378 24.5804H28.2128C26.1121 24.5804 24.7075 25.2131 23.7964 26.3394C23.0751 27.2252 22.6702 28.4147 22.531 29.7054V29.7434L22.5057 29.9459L22.493 30.0344L22.4803 30.2116C22.4297 30.7937 22.3918 31.2746 22.3791 31.6795L40.5002 28.8323V30.4647L-0.5 36.9184V35.286L17.6464 32.4388L17.6337 32.0718V31.9706V31.9199V31.844C17.6084 31.2746 17.5704 30.7051 17.5072 30.1357L17.4945 30.0091L17.4692 29.7813C17.3427 28.4779 16.9251 27.2758 16.2164 26.3773C15.318 25.2511 13.926 24.6057 11.838 24.5931H10.7624L10.3321 23.6693C9.29449 21.4295 8.78831 19.2149 8.78831 16.9751C8.78831 14.1658 9.91455 11.4578 11.9139 9.44577C11.9772 9.3825 12.0278 9.33188 12.0911 9.26861L-0.5 7.28187V5.66211Z" fill="white"/>
<path fill-rule="evenodd" clip-rule="evenodd" d="M20.0001 7.7627C25.7199 7.7627 29.6048 12.1917 29.6048 16.9751C29.6048 18.8985 29.1872 20.8853 28.2128 22.9859C22.5816 22.9859 21.1896 27.048 20.9239 29.5915L20.9113 29.756C20.8227 30.6671 20.7721 31.4011 20.7594 31.9452L19.2282 32.1856V32.135C19.2282 31.5529 19.1649 30.743 19.0637 29.7054V29.6548C18.8233 27.1112 17.4566 22.9733 11.7748 22.9733C10.8004 20.8853 10.3828 18.8859 10.3828 16.9624C10.3828 12.1917 14.2677 7.7627 20.0001 7.7627Z" fill="#0073FA"/>
</g>
<defs>
<clipPath id="clip0_573_406">
<rect width="40" height="40" rx="20" fill="white"/>
</clipPath>
</defs>
</svg>
