<svg width="49" height="49" viewBox="0 0 49 49" fill="none" xmlns="http://www.w3.org/2000/svg">
<circle cx="24.3336" cy="24.3336" r="23.8334" transform="rotate(180 24.3336 24.3336)" stroke="black" stroke-opacity="0.25"/>
<path d="M21.3995 24.1083C21.1066 24.4012 21.1066 24.8761 21.3995 25.169L26.1725 29.942C26.4654 30.2349 26.9402 30.2349 27.2331 29.942C27.526 29.6491 27.526 29.1742 27.2331 28.8813L22.9905 24.6387L27.2331 20.396C27.526 20.1031 27.526 19.6283 27.2331 19.3354C26.9402 19.0425 26.4654 19.0425 26.1725 19.3354L21.3995 24.1083ZM23.3203 24.6387L23.3203 23.8887L21.9298 23.8887L21.9298 24.6387L21.9298 25.3887L23.3203 25.3887L23.3203 24.6387Z" fill="#949494"/>
</svg>
