<svg width="16" height="17" viewBox="0 0 16 17" fill="none" xmlns="http://www.w3.org/2000/svg">
<g clip-path="url(#clip0_573_389)">
<path d="M7.75625 0.385281C7.57188 0.458328 7.30938 0.723952 7.19688 0.953053C7.14375 1.0593 6.69688 2.13176 6.20312 3.33704C5.70625 4.54231 5.3 5.53508 5.29375 5.53841C5.29063 5.54505 4.25 5.63137 2.98438 5.73098C0.95625 5.88704 0.66875 5.91692 0.540625 5.97669C0.321875 6.07962 0.2125 6.18255 0.109375 6.37844C0.028125 6.5345 0.01875 6.59094 0.015625 6.82337C0.015625 7.172 0.09375 7.35794 0.353125 7.62688C0.459375 7.73645 1.25 8.49016 2.10938 9.297C2.96875 10.1038 3.69688 10.7911 3.72813 10.821C3.77813 10.8741 3.75625 10.9937 3.24688 13.1818C2.89062 14.7224 2.7125 15.5525 2.70938 15.6753C2.70312 16.2365 3.27813 16.7113 3.85313 16.6216C3.95938 16.605 4.475 16.2962 6.01875 15.3333C7.13438 14.6394 8.0625 14.0683 8.08125 14.0683C8.1 14.0683 8.97813 14.6361 10.0344 15.3333C11.3406 16.1933 12.0031 16.6083 12.1031 16.6382C12.4906 16.7411 12.9656 16.4722 13.1625 16.0372C13.3031 15.7351 13.2969 15.6986 12.75 13.0822C12.475 11.7607 12.2594 10.6683 12.275 10.655C12.2875 10.645 13.0281 9.98098 13.9219 9.18079C14.8156 8.38391 15.6125 7.66341 15.6906 7.5804C16.0406 7.2218 16.0938 6.75032 15.8281 6.3552C15.7031 6.16926 15.4844 5.99993 15.3063 5.9468C15.2312 5.92356 14.1281 5.79739 12.85 5.6679L10.5281 5.42883L9.65 3.1511C8.71562 0.720632 8.67813 0.637625 8.4 0.455008C8.22188 0.335476 7.95625 0.308914 7.75625 0.385281Z" fill="#EE122A"/>
</g>
<defs>
<clipPath id="clip0_573_389">
<rect width="16" height="17" fill="white"/>
</clipPath>
</defs>
</svg>
