<svg width="40" height="40" viewBox="0 0 40 40" fill="none" xmlns="http://www.w3.org/2000/svg">
<path d="M20.0001 0C31.0448 0 40.0002 8.95544 40.0002 20.0001C40.0002 31.0448 31.0448 40.0002 20.0001 40.0002C8.95544 40.0002 0 31.0448 0 20.0001C0 8.95544 8.95544 0 20.0001 0Z" fill="#FC3F1D"/>
<path d="M22.7762 31.4996H26.9547V7.50391H20.8754C14.7628 7.49837 11.5486 10.6405 11.5486 15.2679C11.5486 18.9642 13.3109 21.1366 16.4531 23.381L11 31.4941H15.5221L21.5958 22.4112L19.4899 20.998C16.9352 19.2746 15.6938 17.9279 15.6938 15.024C15.6938 12.4693 17.4894 10.7403 20.9086 10.7403H22.7706L22.7762 31.4996Z" fill="white"/>
</svg>
